<svg width="10" height="11" viewBox="0 0 10 11" fill="none" xmlns="http://www.w3.org/2000/svg">
<path d="M5.11402 2.66635L5.43802 3.42418C5.45999 3.49007 5.52039 3.52851 5.5808 3.534L6.40452 3.61089C6.58025 3.62736 6.64614 3.84153 6.51984 3.95685L5.8993 4.5005C5.84988 4.54443 5.82791 4.61033 5.84439 4.67074L6.02561 5.47798C6.06405 5.64822 5.88283 5.78001 5.72907 5.69215L5.02067 5.26931C4.96575 5.23636 4.89437 5.23636 4.83945 5.26931L4.13105 5.69215C3.98278 5.78001 3.79607 5.64822 3.83451 5.47798L4.01573 4.67074C4.03221 4.61033 4.01024 4.54443 3.96082 4.5005L3.34028 3.95685C3.20849 3.84153 3.27988 3.62736 3.4556 3.61089L4.27932 3.534C4.34522 3.52851 4.40013 3.49007 4.42759 3.42967L4.75159 2.67185C4.81748 2.5071 5.04263 2.5071 5.11402 2.66635Z" stroke="#F0C932" stroke-width="0.549146" stroke-miterlimit="10" stroke-linecap="round" stroke-linejoin="round"/>
<path d="M8.66552 4.27242C8.67972 2.21008 7.01937 0.526715 4.95703 0.512522C2.89469 0.498329 1.21132 2.15868 1.19713 4.22102C1.18294 6.28336 2.84329 7.96672 4.90563 7.98091C6.96797 7.99511 8.65133 6.33476 8.66552 4.27242Z" stroke="#F0C932" stroke-width="0.549146" stroke-miterlimit="10" stroke-linecap="round" stroke-linejoin="round"/>
<path d="M4.42208 7.94364L3.49402 10.2775L2.31885 8.93211L0.545105 9.09685L1.72028 6.15343" stroke="#F0C932" stroke-width="0.549146" stroke-miterlimit="10" stroke-linecap="round" stroke-linejoin="round"/>
<path d="M5.43254 7.94366L6.36609 10.2775L7.53577 8.93212L9.31501 9.09687L8.13434 6.15344" stroke="#F0C932" stroke-width="0.549146" stroke-miterlimit="10" stroke-linecap="round" stroke-linejoin="round"/>
</svg>
