<svg width="20" height="20" viewBox="0 0 7 8" fill="none" xmlns="http://www.w3.org/2000/svg">
<path d="M3.48265 1.06005C3.53007 0.914098 3.73655 0.914098 3.78397 1.06005L4.45133 3.11398C4.47254 3.17925 4.53337 3.22344 4.602 3.22344L6.76163 3.22344C6.91509 3.22344 6.97889 3.41982 6.85474 3.51002L5.10756 4.77942C5.05204 4.81976 5.02881 4.89126 5.05001 4.95653L5.71738 7.01046C5.7648 7.15641 5.59775 7.27778 5.4736 7.18758L3.72642 5.91818C3.6709 5.87784 3.59572 5.87784 3.5402 5.91818L1.79302 7.18758C1.66886 7.27778 1.50182 7.15641 1.54924 7.01046L2.2166 4.95653C2.23781 4.89126 2.21458 4.81976 2.15906 4.77942L0.411877 3.51002C0.287725 3.41982 0.351531 3.22344 0.50499 3.22344L2.66462 3.22344C2.73325 3.22344 2.79408 3.17925 2.81528 3.11398L3.48265 1.06005Z" fill="#F1CC4A"/>
</svg>
